PathFileType	4	(X/Y/Z)	OpenSim_Sub06_CSStiffKnee_Accel.trc
DataRate	CameraRate	NumFrames	NumMarkers	Units	OrigDataRate	OrigDataStartFrame	OrigNumFrames
100	100	20	8	m	100	6269	7164
Frame#	Time	torso_imu_offset_imu	pelvis_imu_offset_imu	tibia_r_imu_offset_imu	femur_r_imu_offset_imu	tibia_l_imu_offset_imu	femur_l_imu_offset_imu	toes_r_imu_offset_imu	toes_l_imu_offset_imu
				X1	Y1	Z1	X2	Y2	Z2	X3	Y3	Z3	X4	Y4	Z4	X5	Y5	Z5	X6	Y6	Z6	X7	Y7	Z7	X8		Y8	Z8	

6269	62.68000000	9.51943281	2.10327952	6.27637569	8.68891094	-1.39538280	4.75699307	9.62483087	-0.08286022	6.72618849	7.71428403	-4.55365325	3.78409404	11.62820929	1.11835512	2.23801429	9.00456972	2.68460419	-2.55258960	31.88720005	9.96993989	24.30173109	4.29316779	0.98133181	12.62637735
6270	62.69000000	11.70217912	2.04485886	6.30385348	8.91629703	-0.28105582	7.75039581	13.94869249	-0.80473134	9.12446353	9.60614144	-4.50859421	3.82732169	12.53725324	1.04343115	2.67028505	10.08273301	3.06784410	-2.23648732	33.12839969	27.88366247	29.31208250	3.96836623	2.47966385	13.30613462
6271	62.70000000	15.03416725	1.71732951	7.07919243	10.69421865	1.62557133	9.81767100	21.19300339	-0.92202934	13.40019534	16.46683102	-7.28420538	1.31700088	13.66132375	1.91550943	3.23551898	11.17883325	3.16042921	-1.80514423	-24.18187541	-7.91975798	7.06174640	3.42784875	2.89116626	14.01148041
6272	62.71000000	14.36456107	0.43815280	8.10321067	15.37594618	3.02548253	9.35853513	23.96756245	0.04152787	11.39662929	25.26767458	-9.94004231	-3.27862520	13.70788548	3.29320337	5.14680142	11.74380312	2.80521058	-1.47919193	22.20947253	-10.20772984	8.59377960	4.29951290	2.60208318	13.83219128
6273	62.72000000	12.10776984	-0.48232457	8.25054064	17.94391847	3.77907269	9.79481022	19.03799107	-0.23574812	4.77080189	25.39947593	-6.15695065	-4.43864396	12.55023444	3.62857791	6.72992606	11.38332927	3.22195938	-1.36964899	6.60528783	3.85645211	12.00367764	3.88084640	1.68006848	13.98605079
6274	62.73000000	12.15042033	-0.87050334	7.50811956	14.34034308	3.13956919	10.06026537	10.56368598	-2.04979151	4.69069263	17.45497332	-0.75375041	0.51487755	12.15074905	2.46848446	7.98015205	11.30279425	4.14552017	-1.18208667	7.15361957	-1.15179128	8.22379371	3.98211515	1.78979693	14.61268347
6275	62.74000000	12.10203199	-1.75127394	6.71491010	10.80585573	0.33660848	7.83776796	4.36761113	-0.65577239	1.82613204	10.39623821	2.18301121	3.94439283	11.79275774	0.53658240	10.06382054	11.76013508	3.85839476	-0.63677741	5.45791854	-0.66798826	8.62689671	4.32248686	0.55652766	14.45903761
6276	62.75000000	11.62008726	-2.19687938	5.74839327	9.42628931	-2.12973474	6.34823001	2.67519937	3.23954340	-2.34131219	6.11828794	3.32028102	3.48132636	11.70643688	-0.53132317	10.31421950	12.91437872	3.57572382	-0.60684501	5.23398197	-2.31913307	8.57262999	4.29579054	0.15829922	15.17572108
6277	62.76000000	11.13619038	-1.98665927	5.14900589	8.34703818	-3.48891276	5.18426620	3.41815437	7.53193371	-3.45427324	4.29660964	4.35067981	2.75278467	13.74556015	-0.92355538	7.50012934	14.18911326	3.49915658	-0.83866143	5.18622974	-4.48364731	7.79134520	3.41754646	0.14054015	15.96660366
6278	62.77000000	10.79194341	-1.70666453	5.00265653	7.60125387	-3.94673859	4.62240254	6.08938986	10.94037768	-4.36080494	3.18240999	5.00066257	2.58981887	15.67922162	-0.86325303	4.22054414	14.79713500	2.91688335	-0.50815986	5.05127750	-5.34479174	7.37986792	4.38965652	0.62193522	15.55334965
6279	62.78000000	10.10220652	-1.24579238	4.94545989	7.62447667	-3.83691162	4.76053916	8.60234891	13.66362240	-3.83061027	2.49611001	4.44068264	2.12755113	14.66384250	-0.20551082	3.08134692	13.33021337	1.78169123	0.49986246	5.17055374	-3.27516087	7.98675764	6.49531503	-0.08689034	14.88185262
6280	62.79000000	9.31468628	-0.89506275	4.94041377	7.73369298	-2.92685254	5.01860154	9.79644466	14.18372057	-1.61668253	3.22008233	3.63989730	0.80085517	12.42890340	-0.46109450	3.22504182	12.11197469	1.05142057	1.95814582	5.29194819	-3.16919467	7.88294875	7.70180642	0.05226909	14.32573812
6281	62.80000000	9.01726957	-0.65414354	4.78459390	7.70145921	-1.72081027	5.33544228	10.07126072	11.23632042	0.14521429	5.53748577	2.83234610	-0.72087480	10.42693803	-2.16990738	3.55845576	11.67378311	0.18943561	2.54074819	4.92890971	-2.74029307	8.22459537	7.09225537	3.50403281	14.91564248
6282	62.81000000	8.87028130	-0.63282993	4.60217198	7.66214888	-0.42178362	5.71902045	9.84064323	7.59510785	0.90904419	9.08982069	1.86519065	-1.87348994	8.05543203	-4.12204410	3.46808836	11.08857190	-0.72648563	4.36071576	4.75236941	-2.11839198	8.68763432	9.75498680	3.84559031	14.64636795
6283	62.82000000	8.63569116	-0.81648203	4.59439666	7.45688501	0.71354874	6.18349535	9.41788401	4.78598426	1.29023168	13.41253458	0.74054334	-2.92304773	5.62550592	-5.64779183	3.33728986	11.31539341	-1.75283006	4.46594527	4.81434869	-2.15443816	8.62763615	13.37213773	2.08288529	11.45383739
6284	62.83000000	8.43548671	-1.21012797	4.58108006	7.25793452	1.85893571	6.66920354	9.64553258	2.53157102	1.65769539	15.86076244	-1.44480037	-4.14767752	4.54213771	-6.76288976	2.97081426	10.81110961	-3.59635167	1.44352168	4.65721441	-2.30037734	8.88703467	6.26344879	4.46083284	10.98845402
6285	62.84000000	8.42432498	-1.76623460	4.53836952	7.53366922	2.83295475	7.22655539	10.15533974	0.43513434	2.24911634	13.33786480	-4.62288008	-4.83055471	4.59101106	-8.23927229	2.38435609	10.26426000	-4.42781524	0.09718502	4.84823472	-2.13010993	8.92319734	6.26880914	11.26005320	24.57809043
6286	62.85000000	8.55831490	-2.22894876	4.52114399	8.08885733	3.50151259	7.69978053	10.76281921	-2.01394560	2.39732983	9.51371790	-6.49570894	-3.90407199	4.68270622	-10.35884674	0.79175582	9.84006556	-4.06927731	-1.67804424	4.71572504	-1.71815731	9.04662826	15.05737779	9.67645547	29.28291677
6287	62.86000000	8.91867148	-2.45945232	4.52818278	8.52953367	3.83026889	7.66387929	11.18657751	-4.05284718	2.28371730	8.37424676	-6.44252460	-1.61912410	3.33339003	-11.36412794	-0.91893717	9.17644948	-2.50139842	-2.88564671	5.00896747	-1.69508036	8.95942239	-3.91823848	3.34883576	18.35285606
6288	62.87000000	9.49619062	-2.41208000	4.62104336	8.45076413	3.48096385	6.86688539	11.51986259	-4.25656380	1.89191636	8.50126486	-5.57702404	0.21252763	2.22332841	-10.06165758	-1.24306560	9.76646155	-0.41384088	-3.42602662	5.23380976	-1.92847081	8.79443708	-12.56159284	2.52292238	12.20844725
